<svg width="38" height="38" viewBox="0 0 38 38" fill="none" xmlns="http://www.w3.org/2000/svg">
<g clip-path="url(#clip0_241_109)">
<path fill-rule="evenodd" clip-rule="evenodd" d="M18.9931 0.949951C14.5106 0.952277 10.1752 2.53987 6.7619 5.42886C3.34864 8.31785 1.08016 12.3198 0.362096 16.7192C-0.35597 21.1186 0.523191 25.6286 2.84239 29.4426C5.1616 33.2566 8.7696 36.126 13.0212 37.5378C13.9592 37.7118 14.3125 37.1305 14.3125 36.6362C14.3125 36.1419 14.2938 34.7087 14.2875 33.1419C9.03481 34.2766 7.92488 30.9253 7.92488 30.9253C7.06818 28.7491 5.83004 28.1771 5.83004 28.1771C4.11666 27.0144 5.95824 27.0361 5.95824 27.0361C7.8561 27.1698 8.85349 28.9729 8.85349 28.9729C10.5356 31.8424 13.2714 31.0123 14.3469 30.5273C14.5158 29.3118 15.0067 28.4848 15.5476 28.0154C11.3516 27.5429 6.94311 25.9325 6.94311 18.7387C6.91711 16.873 7.61339 15.0688 8.88788 13.6993C8.69403 13.2267 8.04681 11.3179 9.07234 8.72513C9.07234 8.72513 10.6575 8.2215 14.2657 10.6495C17.3605 9.80798 20.6257 9.80798 23.7205 10.6495C27.3255 8.2215 28.9076 8.72513 28.9076 8.72513C29.9362 11.3117 29.289 13.2205 29.0952 13.6993C30.3737 15.069 31.0714 16.8764 31.043 18.7449C31.043 25.9543 26.6251 27.5429 22.423 28.0061C23.0983 28.5905 23.7018 29.7315 23.7018 31.4849C23.7018 33.9968 23.6799 36.0175 23.6799 36.6362C23.6799 37.1367 24.0207 37.7212 24.9774 37.5378C29.2296 36.1259 32.8379 33.2559 35.1571 29.4413C37.4762 25.6266 38.355 21.116 37.6361 16.7162C36.9172 12.3164 34.6476 8.31434 31.2332 5.42585C27.8188 2.53735 23.4823 0.950803 18.9993 0.949951H18.9931Z" fill="#476DF6"/>
<path d="M7.26123 27.9067C7.22058 28 7.0705 28.0279 6.94857 27.9627C6.82663 27.8974 6.73596 27.7761 6.77974 27.6798C6.82351 27.5834 6.97046 27.5585 7.0924 27.6238C7.21434 27.6891 7.30813 27.8134 7.26123 27.9067Z" fill="#476DF6"/>
<path d="M8.0281 28.7552C7.96334 28.7876 7.88927 28.7967 7.81854 28.7808C7.74782 28.7649 7.68485 28.7251 7.6404 28.6681C7.51846 28.5376 7.49343 28.3572 7.58723 28.2764C7.68103 28.1956 7.84988 28.2329 7.97182 28.3635C8.09376 28.494 8.12189 28.6743 8.0281 28.7552Z" fill="#476DF6"/>
<path d="M8.77169 29.8341C8.65601 29.9149 8.45902 29.8341 8.34959 29.6724C8.31933 29.6434 8.29527 29.6087 8.27883 29.5702C8.26239 29.5317 8.25391 29.4904 8.25391 29.4486C8.25391 29.4068 8.26239 29.3655 8.27883 29.327C8.29527 29.2885 8.31933 29.2538 8.34959 29.2248C8.46527 29.147 8.66226 29.2248 8.77169 29.3833C8.88112 29.5419 8.88425 29.7533 8.77169 29.8341Z" fill="#476DF6"/>
<path d="M9.782 30.8785C9.67882 30.9936 9.46934 30.9625 9.29738 30.807C9.12542 30.6516 9.08476 30.4402 9.18794 30.3283C9.29112 30.2164 9.5006 30.2475 9.67882 30.3998C9.85703 30.5521 9.89143 30.7666 9.782 30.8785Z" fill="#476DF6"/>
<path d="M11.198 31.488C11.1511 31.6341 10.9385 31.6994 10.7259 31.6372C10.5133 31.5751 10.3726 31.401 10.4132 31.2517C10.4539 31.1025 10.6696 31.0341 10.8854 31.1025C11.1011 31.1709 11.2387 31.3357 11.198 31.488Z" fill="#476DF6"/>
<path d="M12.7424 31.5937C12.7424 31.746 12.5673 31.8766 12.3422 31.8797C12.1171 31.8828 11.9326 31.7585 11.9326 31.6061C11.9326 31.4538 12.1077 31.3232 12.3328 31.3201C12.5579 31.317 12.7424 31.4383 12.7424 31.5937Z" fill="#476DF6"/>
<path d="M14.1807 31.3543C14.2089 31.5066 14.0525 31.6651 13.8274 31.7025C13.6023 31.7398 13.4053 31.6496 13.3772 31.5004C13.3491 31.3512 13.5116 31.1895 13.7305 31.1491C13.9494 31.1087 14.1526 31.2019 14.1807 31.3543Z" fill="#476DF6"/>
</g>
<defs>
<clipPath id="clip0_241_109">
<rect width="38" height="38" rx="6" fill="white"/>
</clipPath>
</defs>
</svg>
