<svg width="39" height="38" viewBox="0 0 39 38" fill="none" xmlns="http://www.w3.org/2000/svg">
<path d="M38.8434 11.1657C38.7522 9.14252 38.4253 7.75821 37.9617 6.54884C37.4752 5.30144 36.829 4.23659 35.7724 3.18695C34.7158 2.13731 33.6592 1.47558 32.4125 0.996397C31.2039 0.52482 29.8204 0.205364 27.7984 0.114091C25.7688 0.0228183 25.1227 0 19.9689 0C14.8074 0 14.1613 0.0228183 12.1393 0.114091C10.1173 0.205364 8.73381 0.532426 7.52517 0.996397C6.27092 1.48319 5.2067 2.1297 4.15769 3.18695C3.10868 4.2442 2.44735 5.30144 1.96846 6.54884C1.50476 7.75821 1.1779 9.14252 1.08668 11.1657C0.995461 13.1966 0.972656 13.8431 0.972656 19C0.972656 24.1645 0.995461 24.8111 1.08668 26.8343C1.1779 28.8575 1.50476 30.2418 1.96846 31.4512C2.45495 32.6986 3.10108 33.7634 4.15769 34.8131C5.2067 35.8703 6.27092 36.5244 7.51757 37.0036C8.72621 37.4752 10.1097 37.7946 12.1317 37.8859C14.1613 37.9772 14.8074 38 19.9613 38C25.1227 38 25.7688 37.9772 27.7908 37.8859C29.8128 37.7946 31.1963 37.4676 32.4049 37.0036C33.6516 36.5168 34.7158 35.8703 35.7648 34.8131C36.8138 33.7558 37.4752 32.6986 37.9541 31.4512C38.4253 30.2418 38.7446 28.8575 38.8358 26.8343C38.927 24.8034 38.9499 24.1569 38.9499 19C38.9499 13.8431 38.9347 13.189 38.8434 11.1657ZM35.4304 26.6821C35.3467 28.538 35.0351 29.5496 34.7766 30.2114C34.4346 31.0937 34.0165 31.7326 33.3475 32.4019C32.6786 33.0713 32.0477 33.4744 31.1583 33.8319C30.4894 34.0905 29.4784 34.4023 27.6312 34.486C25.632 34.5773 25.0315 34.6001 19.9537 34.6001C14.8758 34.6001 14.2753 34.5773 12.2761 34.486C10.4213 34.4023 9.41034 34.0905 8.74901 33.8319C7.86723 33.4896 7.22871 33.0713 6.55977 32.4019C5.89084 31.7326 5.48796 31.1013 5.13069 30.2114C4.87224 29.542 4.56057 28.5304 4.47696 26.6821C4.38574 24.6817 4.36293 24.0809 4.36293 19C4.36293 13.9191 4.38574 13.3183 4.47696 11.3179C4.56057 9.46197 4.87224 8.45036 5.13069 7.78863C5.47276 6.90633 5.89084 6.26742 6.55977 5.59808C7.22871 4.92874 7.85963 4.52562 8.74901 4.16813C9.41794 3.90953 10.4289 3.59768 12.2761 3.51401C14.2753 3.42274 14.8758 3.39992 19.9537 3.39992C25.0315 3.39992 25.632 3.42274 27.6312 3.51401C29.486 3.59768 30.497 3.90953 31.1583 4.16813C32.0401 4.51041 32.6786 4.92874 33.3475 5.59808C34.0165 6.26742 34.4193 6.89872 34.7766 7.78863C35.0351 8.45797 35.3467 9.46958 35.4304 11.3179C35.5216 13.3183 35.5444 13.9191 35.5444 19C35.5444 24.0809 35.514 24.6817 35.4304 26.6821Z" fill="#476DF6"/>
<path d="M19.9537 9.23389C14.5566 9.23389 10.1934 13.6074 10.1934 19.0001C10.1934 24.4004 14.5642 28.7663 19.9537 28.7663C25.3432 28.7663 29.7141 24.3852 29.7141 19.0001C29.7141 13.5998 25.3508 9.23389 19.9537 9.23389ZM19.9537 25.336C16.457 25.336 13.6216 22.4989 13.6216 19.0001C13.6216 15.5013 16.457 12.6642 19.9537 12.6642C23.4504 12.6642 26.2858 15.5013 26.2858 19.0001C26.2858 22.4989 23.4504 25.336 19.9537 25.336Z" fill="#476DF6"/>
<path d="M30.0939 11.1354C31.3534 11.1354 32.3744 10.1138 32.3744 8.8536C32.3744 7.59339 31.3534 6.57178 30.0939 6.57178C28.8345 6.57178 27.8135 7.59339 27.8135 8.8536C27.8135 10.1138 28.8345 11.1354 30.0939 11.1354Z" fill="#476DF6"/>
<path d="M0.950195 19C0.950195 24.1645 0.973 24.8111 1.06422 26.8343C1.15544 28.8575 1.4823 30.2418 1.94599 31.4512C2.43249 32.6986 3.07862 33.7634 4.13523 34.8131C5.18424 35.8627 6.24846 36.5244 7.4951 37.0036C8.70375 37.4752 10.0872 37.7946 12.1092 37.8859C14.1388 37.9772 14.785 38 19.9388 38C25.1002 38 25.7464 37.9772 27.7684 37.8859C29.7904 37.7946 31.1738 37.4676 32.3825 37.0036C33.6291 36.5168 34.6933 35.8703 35.7424 34.8131C36.7914 33.7634 37.4527 32.6986 37.9316 31.4512C38.4029 30.2418 38.7221 28.8575 38.8134 26.8343C38.9046 24.8034 38.9274 24.1569 38.9274 19C38.9274 13.8355 38.9046 13.189 38.8134 11.1657C38.7221 9.14252 38.3953 7.75821 37.9316 6.54884C37.4451 5.30144 36.799 4.23659 35.7424 3.18695C34.7009 2.1297 33.6367 1.47558 32.3901 0.996397C31.1814 0.52482 29.798 0.205364 27.776 0.114091C25.7464 0.0228183 25.1002 0 19.9464 0C14.785 0 14.1388 0.0228183 12.1168 0.114091C10.0948 0.205364 8.71135 0.532426 7.50271 0.996397C6.25606 1.48319 5.19184 2.1297 4.14283 3.18695C3.09382 4.2442 2.43249 5.30144 1.9536 6.54884C1.4823 7.75821 1.15544 9.14252 1.06422 11.1657C0.973 13.189 0.950195 13.8355 0.950195 19ZM4.37848 19C4.37848 13.9267 4.40129 13.3183 4.4925 11.3179C4.57612 9.46197 4.88778 8.45036 5.14623 7.78863C5.4883 6.90633 5.90639 6.26742 6.57532 5.59808C7.24425 4.92874 7.87518 4.52562 8.76456 4.16813C9.43349 3.90953 10.4445 3.59768 12.2917 3.51401C14.2909 3.42274 14.8914 3.39992 19.9692 3.39992C25.047 3.39992 25.6475 3.42274 27.6467 3.51401C29.5015 3.59768 30.5125 3.90953 31.1738 4.16813C32.0556 4.51041 32.6941 4.92874 33.3631 5.59808C34.032 6.26742 34.4349 6.89872 34.7922 7.78863C35.0506 8.45797 35.3623 9.46958 35.4459 11.3179C35.5371 13.3183 35.5599 13.9191 35.5599 19C35.5599 24.0809 35.5371 24.6817 35.4459 26.6821C35.3623 28.538 35.0506 29.5496 34.7922 30.2114C34.4501 31.0937 34.032 31.7326 33.3631 32.4019C32.6941 33.0713 32.0632 33.4744 31.1738 33.8319C30.5049 34.0905 29.4939 34.4023 27.6467 34.486C25.6475 34.5773 25.047 34.6001 19.9692 34.6001C14.8914 34.6001 14.2909 34.5773 12.2917 34.486C10.4369 34.4023 9.42589 34.0905 8.76456 33.8319C7.88278 33.4896 7.24425 33.0713 6.57532 32.4019C5.90639 31.7326 5.50351 31.1013 5.14623 30.2114C4.88778 29.542 4.57612 28.5304 4.4925 26.6821C4.39368 24.6817 4.37848 24.0733 4.37848 19Z" fill="#476DF6"/>
</svg>
