<svg width="35" height="35" viewBox="0 0 35 35" fill="none" xmlns="http://www.w3.org/2000/svg">
<g clip-path="url(#clip0_241_124)">
<path d="M0 35L2.47373 26.0171C0.944364 23.3805 0.142072 20.3945 0.15043 17.342C0.15043 7.77685 7.97277 0 17.5752 0C22.2385 0 26.6177 1.8049 29.9021 5.08199C33.1948 8.35908 35.0083 12.7174 35 17.3503C35 26.9154 27.1776 34.6923 17.5668 34.6923H17.5585C14.6418 34.6923 11.7753 33.9603 9.22635 32.5796L0 35ZM9.66929 29.4439L10.1958 29.76C12.4188 31.0741 14.9678 31.7645 17.5668 31.7728H17.5752C25.5563 31.7728 32.0582 25.3101 32.0582 17.3586C32.0582 13.5076 30.5539 9.8895 27.8211 7.16136C25.0883 4.43322 21.4446 2.93607 17.5752 2.93607C9.59407 2.92776 3.09217 9.39045 3.09217 17.342C3.09217 20.0618 3.85267 22.7151 5.30682 25.0107L5.64947 25.5597L4.18696 30.8745L9.66929 29.4439Z" fill="#476DF6"/>
<path d="M0 35L2.47373 26.0171C0.944364 23.3805 0.142072 20.3945 0.15043 17.342C0.15043 7.77685 7.97277 0 17.5752 0C22.2385 0 26.6177 1.8049 29.9021 5.08199C33.1948 8.35908 35.0083 12.7174 35 17.3503C35 26.9154 27.1776 34.6923 17.5668 34.6923H17.5585C14.6418 34.6923 11.7753 33.9603 9.22635 32.5796L0 35ZM9.66929 29.4439L10.1958 29.76C12.4188 31.0741 14.9678 31.7645 17.5668 31.7728H17.5752C25.5563 31.7728 32.0582 25.3101 32.0582 17.3586C32.0582 13.5076 30.5539 9.8895 27.8211 7.16136C25.0883 4.43322 21.4446 2.93607 17.5752 2.93607C9.59407 2.92776 3.09217 9.39045 3.09217 17.342C3.09217 20.0618 3.85267 22.7151 5.30682 25.0107L5.64947 25.5597L4.18696 30.8745L9.66929 29.4439Z" fill="#476DF6"/>
<path fill-rule="evenodd" clip-rule="evenodd" d="M13.2208 10.0892C12.8949 9.36555 12.5522 9.34891 12.243 9.34059C11.9923 9.33228 11.6998 9.33228 11.4073 9.33228C11.1148 9.33228 10.6468 9.4404 10.2456 9.87291C9.84447 10.3054 8.72461 11.3534 8.72461 13.491C8.72461 15.6203 10.2874 17.683 10.5047 17.9742C10.722 18.2653 13.5216 22.7817 17.9426 24.52C21.6198 25.9673 22.3719 25.6761 23.1659 25.6013C23.9598 25.5264 25.7399 24.5533 26.1076 23.5386C26.467 22.5238 26.467 21.6588 26.3583 21.4758C26.2497 21.2928 25.9572 21.1847 25.5226 20.9684C25.088 20.7522 22.9486 19.7042 22.5474 19.5545C22.1463 19.4131 21.8538 19.3382 21.5696 19.7707C21.2771 20.2032 20.4414 21.1764 20.1907 21.4675C19.94 21.7586 19.6809 21.7919 19.2463 21.5756C18.8118 21.3594 17.4077 20.9019 15.7447 19.4214C14.4493 18.2736 13.5718 16.8513 13.3211 16.4188C13.0704 15.9863 13.296 15.7534 13.5133 15.5371C13.7055 15.3458 13.9479 15.0298 14.1651 14.7802C14.3824 14.5307 14.4577 14.3477 14.5997 14.0566C14.7418 13.7655 14.6749 13.516 14.5663 13.2997C14.4577 13.0918 13.6052 10.9459 13.2208 10.0892Z" fill="#476DF6"/>
</g>
<defs>
<clipPath id="clip0_241_124">
<rect width="35" height="35" rx="6" fill="white"/>
</clipPath>
</defs>
</svg>
