<svg width="620" height="546" viewBox="0 0 620 546" fill="none" xmlns="http://www.w3.org/2000/svg">
<g clip-path="url(#clip0_261_314)">
<path d="M816.868 460.495L816.8 460.565C809.504 467.742 799.387 473.78 789.04 477.122C780.813 479.782 768.766 481.925 758.087 477.041C746.348 471.063 740.919 457.918 735.669 445.203C729.866 431.148 724.383 417.874 711.134 413.539C652.565 409.048 616.119 462.99 605.969 518.45L605.937 518.539C591.351 546.137 578.305 565.855 566.059 578.822C554.723 590.815 544.269 596.796 534.096 597.095C523.265 597.414 512.914 591.382 501.52 578.117C491.375 566.308 481.57 550.12 471.191 532.983C456.472 508.689 441.256 483.566 422.113 465.12C400.277 444.082 377.182 436.007 351.51 440.435C301.016 444.372 279.353 490.181 260.236 530.602C259.077 533.056 257.926 535.49 256.777 537.894L256.753 537.935C245.605 554.442 230.362 570.427 212.669 584.17C195.678 597.366 176.447 608.519 157.052 616.415L156.97 616.449L156.884 616.437C138.43 613.453 119.277 606.739 102.961 597.528C84.6731 587.207 70.4593 574.116 61.8539 559.669L62.3911 559.347C82.4101 592.953 125.791 610.754 156.898 615.807C197.08 599.425 234.204 570.201 256.221 537.608C257.364 535.21 258.513 532.784 259.669 530.339C278.856 489.768 300.606 443.781 351.43 439.823C377.287 435.362 400.557 443.493 422.544 464.678C441.746 483.182 456.987 508.339 471.722 532.667C492.685 567.274 510.789 597.159 534.077 596.477C544.076 596.183 554.401 590.273 565.603 578.4C577.808 565.481 590.814 545.821 605.362 518.295C610.693 489.209 622.668 462.79 639.094 443.901C648.356 433.246 658.875 425.179 670.349 419.926C682.947 414.157 696.695 411.802 711.22 412.919L711.292 412.935C724.84 417.343 730.637 431.387 736.246 444.964C741.453 457.571 746.834 470.609 758.359 476.477C768.841 481.272 780.725 479.151 788.847 476.525C799.071 473.22 809.064 467.265 816.287 460.185C819.472 443.175 817.577 424.972 815.741 407.367C814.611 396.491 813.437 385.246 813.484 374.433L814.108 374.436C814.061 385.216 815.229 396.445 816.362 407.301C818.204 424.983 820.108 443.272 816.883 460.395L816.865 460.492L816.868 460.495Z" fill="white" fill-opacity="0.3"/>
<path d="M789.502 427.019C780.165 436.598 766.402 443.859 754.039 445.514C748.015 446.318 742.637 445.832 738.055 444.065C726.467 439.593 720.398 427.143 714.532 415.105C707.927 401.544 701.684 388.735 688.254 387.211C633.258 380.968 610.88 438.521 596.243 495.641C585.908 535.977 575.179 561.498 563.203 573.785C558.825 578.276 554.286 580.997 549.532 582.03C529.064 586.485 506.875 559.022 481.184 527.218C463.55 505.388 443.561 480.642 421.444 463.261C396.104 443.345 371.857 436.172 347.324 441.322C304.644 450.285 288.595 487.24 273.072 522.978C270.363 529.215 267.562 535.67 264.685 541.788C254.847 562.714 236.434 580.261 221.49 593.215C207.352 605.471 191.284 616.114 175.03 624L174.956 624.037L174.873 624.032C160.978 623.164 146.4 620.026 132.714 614.954C118.054 609.522 104.819 601.961 94.4401 593.099C89.0287 588.479 84.3238 583.386 80.4569 577.959L80.966 577.593C84.8018 582.974 89.4731 588.029 94.8483 592.619C114.928 609.763 145.569 621.555 174.829 623.401C191.009 615.546 207.003 604.945 221.078 592.742C235.973 579.833 254.326 562.342 264.115 541.522C266.989 535.412 269.788 528.966 272.497 522.728C288.082 486.843 304.198 449.736 347.192 440.708C371.918 435.516 396.331 442.732 421.827 462.767C444 480.192 464.011 504.965 481.668 526.822C507.227 558.465 529.303 585.792 549.395 581.416C557.858 579.576 565.551 572.282 572.908 559.128C580.874 544.885 588.307 524.065 595.634 495.477C602.079 470.334 610.6 441.679 624.966 419.778C632.641 408.078 641.43 399.329 651.092 393.775C662.097 387.447 674.621 385.027 688.32 386.583C702.091 388.144 708.405 401.104 715.089 414.825C720.901 426.756 726.916 439.093 738.274 443.476C742.756 445.206 748.029 445.682 753.948 444.891C767.436 443.089 782.611 434.537 791.745 423.593C792.767 415.596 792.661 406.892 791.421 396.99C790.444 389.046 788.929 380.921 787.465 373.063C785.546 362.767 783.562 352.123 782.77 341.796L783.394 341.749C784.177 352.041 786.161 362.668 788.079 372.947C789.547 380.813 791.062 388.95 792.042 396.913C793.291 406.906 793.392 415.687 792.352 423.765L792.339 423.856L792.282 423.926C791.406 424.981 790.472 426.012 789.491 427.019L789.502 427.019Z" fill="white" fill-opacity="0.3"/>
<path d="M761.723 394.767C754.041 402.648 743.554 408.848 733.469 411.137C727.81 412.422 722.618 412.406 718.036 411.092C706.537 407.793 699.65 396.384 692.986 385.35C685.478 372.922 678.387 361.178 665.383 360.878C612.123 359.642 595.638 416.749 586.539 472.776C579.654 515.156 570.871 541.277 559.346 553.102C556.178 556.351 552.803 558.521 549.202 559.653C529.952 565.694 506.309 541.274 478.926 512.996C460.132 493.587 438.834 471.589 416.125 456.834C390.111 439.931 366.249 435.145 343.173 442.202C303.17 454.439 290.978 491.095 279.191 526.548C277.085 532.883 274.907 539.431 272.622 545.658C264.668 567.302 247.696 586.046 235.623 598.265C222.105 611.943 207.771 623.152 193.029 631.58L192.965 631.617L192.891 631.62C165.249 632.955 134.94 624.504 113.779 609.555C108.247 605.646 103.301 601.169 99.0787 596.241L99.554 595.832C103.74 600.719 108.652 605.163 114.139 609.039C135.173 623.896 165.295 632.303 192.775 630.989C207.449 622.593 221.712 611.435 235.173 597.815C247.208 585.641 264.12 566.964 272.028 545.434C274.313 539.218 276.488 532.672 278.595 526.343C290.432 490.738 302.672 453.926 342.986 441.594C366.248 434.479 390.285 439.288 416.464 456.302C439.23 471.098 460.557 493.123 479.373 512.554C506.61 540.684 530.131 564.974 549.012 559.048C556.965 556.551 563.708 548.9 569.626 535.656C576.035 521.314 581.364 500.712 585.919 472.668C589.923 448.004 595.625 419.79 607.509 397.549C613.861 385.666 621.53 376.518 630.316 370.356C640.324 363.34 652.129 359.935 665.397 360.243C678.746 360.552 685.924 372.435 693.523 385.017C700.125 395.947 706.953 407.249 718.213 410.479C722.692 411.764 727.782 411.779 733.337 410.517C746.269 407.584 759.877 398.138 767.227 386.999C767.758 379.019 767.034 370.591 765.015 361.249C763.415 353.837 761.311 346.294 759.279 338.996C756.549 329.202 753.727 319.072 752.084 309.153L752.701 309.051C754.338 318.937 757.155 329.05 759.878 338.828C761.913 346.135 764.02 353.686 765.623 361.117C767.661 370.553 768.388 379.061 767.842 387.124L767.838 387.207L767.792 387.276C766.08 389.883 764.029 392.395 761.726 394.759L761.723 394.767Z" fill="white" fill-opacity="0.3"/>
<path d="M734.403 362.945C728.359 369.146 720.69 374.177 712.899 376.754C707.599 378.504 702.593 378.963 698.016 378.108C686.611 375.984 678.894 365.615 671.436 355.586C663.028 344.288 655.09 333.616 642.505 334.537C590.979 338.308 580.386 394.972 576.818 449.906C573.38 502.889 564.497 530.651 548.861 537.265C530.833 544.895 505.728 523.517 476.656 498.769C456.706 481.783 434.089 462.53 410.796 450.401C384.108 436.506 360.627 434.109 339.008 443.073C301.64 458.565 293.282 494.96 285.203 530.155C283.73 536.567 282.207 543.199 280.54 549.52C275.332 569.259 262.659 587.034 249.743 603.295C238.718 617.174 225.322 629.575 211.008 639.151L210.951 639.188L210.885 639.2C185.069 643.668 155.271 638.615 133.112 626.016C127.459 622.802 122.273 618.935 117.695 614.528L118.131 614.081C122.667 618.447 127.812 622.284 133.42 625.47C155.437 637.992 185.044 643.017 210.711 638.595C224.956 629.06 238.279 616.718 249.249 602.906C262.122 586.695 274.752 568.987 279.933 549.359C281.598 543.046 283.121 536.421 284.591 530.011C292.706 494.661 301.099 458.108 338.769 442.49C360.568 433.453 384.224 435.856 411.084 449.842C434.444 462.004 457.086 481.281 477.062 498.291C505.975 522.906 530.948 544.167 548.616 536.688C556.058 533.54 561.852 525.526 566.332 512.19C571.182 497.747 574.407 477.362 576.193 449.865C577.762 425.679 580.636 397.91 590.039 375.328C595.063 363.264 601.619 353.712 609.528 346.946C618.537 339.236 629.617 334.851 642.461 333.911C655.385 332.966 663.425 343.769 671.94 355.21C679.33 365.14 686.971 375.413 698.133 377.49C702.601 378.322 707.506 377.873 712.704 376.154C725.06 372.071 737.102 361.731 742.691 350.419C742.717 342.509 741.339 334.131 738.592 325.519C736.382 318.593 733.694 311.582 731.094 304.799C727.548 295.551 723.883 285.99 721.384 276.524L721.987 276.364C724.48 285.797 728.139 295.342 731.677 304.576C734.279 311.367 736.971 318.386 739.186 325.329C741.962 334.029 743.352 342.495 743.316 350.494L743.317 350.566L743.285 350.632C741.153 354.974 738.077 359.175 734.406 362.942L734.403 362.945Z" fill="white" fill-opacity="0.3"/>
<path d="M553.394 511.14C551.894 512.679 550.272 513.923 548.525 514.881C531.722 524.098 505.156 505.769 474.397 484.547C453.288 469.981 429.361 453.477 405.474 443.971C378.112 433.084 355.012 433.076 334.849 443.943C300.077 462.686 295.53 498.858 291.133 533.835C290.32 540.302 289.478 546.991 288.461 553.384C285.38 572.704 274.817 591.211 263.862 608.336C254.491 622.986 242.431 636.265 228.988 646.734L228.944 646.767L228.889 646.785C204.897 654.323 175.609 652.674 152.451 642.482C146.668 639.938 141.241 636.688 136.32 632.824L136.706 632.333C141.588 636.164 146.971 639.387 152.7 641.913C175.709 652.04 204.803 653.686 228.647 646.211C242.016 635.79 254.008 622.581 263.333 608.006C274.248 590.939 284.772 572.499 287.841 553.292C288.861 546.908 289.698 540.225 290.51 533.763C294.928 498.625 299.495 462.293 334.55 443.4C354.883 432.437 378.156 432.44 405.702 443.396C429.653 452.926 453.61 469.455 474.747 484.037C505.336 505.142 531.759 523.371 548.22 514.339C555.156 510.535 560.001 502.157 563.041 488.731C566.333 474.187 567.456 454.017 566.471 427.069C565.604 403.362 565.653 376.036 572.571 353.115C576.267 340.869 581.707 330.917 588.739 323.547C596.746 315.148 607.105 309.778 619.519 307.589C632.016 305.388 640.92 315.114 650.342 325.411C658.518 334.345 666.974 343.585 678.05 344.509C682.498 344.88 687.215 343.969 692.07 341.802C703.824 336.553 714.299 325.325 718.157 313.847C717.666 305.896 715.654 297.805 712.166 289.797C709.358 283.345 706.093 276.853 702.933 270.571C698.564 261.884 694.047 252.905 690.675 243.903L691.261 243.683C694.62 252.652 699.132 261.619 703.49 270.291C706.653 276.58 709.923 283.078 712.737 289.546C716.26 297.643 718.295 305.828 718.779 313.869L718.785 313.93L718.767 313.988C714.869 325.641 704.239 337.051 692.321 342.374C687.367 344.586 682.545 345.515 677.992 345.134C666.676 344.189 658.138 334.858 649.876 325.834C640.571 315.668 631.779 306.062 619.621 308.206C569.825 316.979 565.125 373.203 567.092 427.047C568.761 472.753 564.39 499.858 553.388 511.146L553.394 511.14Z" fill="white" fill-opacity="0.3"/>
<path d="M551.069 490.048C550.169 490.971 549.21 491.787 548.189 492.493C532.615 503.295 504.589 488.015 472.138 470.319C449.87 458.179 424.63 444.415 400.156 437.537C372.119 429.659 349.398 432.038 330.693 444.811C298.47 466.814 297.726 502.804 297.005 537.612C296.87 544.101 296.732 550.811 296.381 557.248C295.294 577.191 286.315 596.675 277.984 613.375C270.665 628.046 261.626 644.52 246.94 654.338C237.769 660.469 225.549 664.014 211.598 664.585C198.743 665.112 184.978 663.159 171.795 658.943C165.869 657.049 160.204 654.413 154.95 651.114L155.283 650.582C160.492 653.854 166.11 656.466 171.983 658.346C194.168 665.441 225.417 667.976 246.591 653.818C261.151 644.084 270.141 627.693 277.422 613.095C285.724 596.453 294.673 577.039 295.753 557.215C296.105 550.789 296.243 544.084 296.378 537.601C297.1 502.635 297.85 466.482 330.338 444.296C349.205 431.414 372.097 429.004 400.325 436.939C424.869 443.835 450.141 457.615 472.441 469.774C504.711 487.37 532.579 502.567 547.838 491.981C554.262 487.521 558.164 478.785 559.767 465.268C561.502 450.624 560.518 430.669 556.767 404.265C553.465 381.036 550.685 354.155 555.119 330.896C557.49 318.465 561.81 308.119 567.963 300.139C574.972 291.046 584.607 284.697 596.588 281.262C608.657 277.804 618.418 286.451 628.756 295.606C637.72 303.547 646.994 311.758 657.975 311.526C662.39 311.433 666.924 310.06 671.448 307.445C682.249 301.203 693.304 289.453 693.642 277.266C693.872 269.086 689.876 261.318 685.762 254.063C682.366 248.075 678.527 242.087 674.816 236.293C669.617 228.182 664.24 219.795 659.994 211.271L660.554 210.993C664.786 219.487 670.154 227.861 675.345 235.958C679.062 241.757 682.903 247.753 686.31 253.758C690.469 261.09 694.505 268.945 694.272 277.286C693.923 289.713 682.716 301.663 671.764 307.988C667.144 310.657 662.511 312.059 657.991 312.152C646.762 312.388 637.399 304.095 628.342 296.075C618.138 287.04 608.501 278.502 596.765 281.865C548.697 295.639 549.883 351.426 557.387 404.177C564.078 451.216 562.085 478.757 551.077 490.05L551.069 490.048Z" fill="white" fill-opacity="0.3"/>
<path d="M549.048 468.968C548.661 469.365 548.263 469.741 547.85 470.097C533.506 482.485 504.02 470.253 469.879 456.086C446.451 446.367 419.899 435.348 394.834 431.097C366.123 426.226 343.781 430.992 326.527 445.671C296.813 470.953 299.876 506.82 302.838 541.503C303.39 547.976 303.962 554.663 304.293 561.105C305.31 580.841 298.531 601.029 292.097 618.4C286.459 633.624 276.251 647.039 266.378 660.011L264.979 661.849C258.425 670.475 247.515 675.816 232.554 677.725C217.174 679.69 201.539 677.535 191.13 675.384C185.044 674.126 179.138 672.105 173.571 669.385L173.846 668.823C179.365 671.525 185.224 673.527 191.255 674.775C204.048 677.423 247.14 684.28 264.474 661.471L265.873 659.633C275.719 646.695 285.9 633.319 291.506 618.184C297.919 600.868 304.671 580.753 303.663 561.135C303.333 554.704 302.764 548.019 302.209 541.556C299.237 506.715 296.158 470.685 326.118 445.196C343.516 430.391 366.03 425.578 394.934 430.479C420.068 434.744 446.656 445.776 470.115 455.509C504.064 469.592 533.384 481.76 547.435 469.621C553.355 464.511 556.31 455.408 556.473 441.796C556.649 427.051 553.563 407.311 547.038 381.453C541.298 358.706 535.693 332.267 537.645 308.667C538.691 296.057 541.893 285.309 547.166 276.726C553.177 266.944 562.082 259.611 573.635 254.93C585.271 250.216 595.893 257.782 607.137 265.791C616.889 272.739 626.978 279.923 637.875 278.534C642.24 277.979 646.589 276.141 650.803 273.082C662.569 264.53 669.923 251.508 669.1 240.675C668.442 232.001 663.534 224.173 659.333 218.322C655.351 212.778 650.939 207.272 646.673 201.953C640.645 194.435 634.411 186.658 629.285 178.629L629.814 178.293C634.923 186.295 641.145 194.056 647.163 201.563C651.437 206.89 655.852 212.399 659.845 217.96C664.093 223.879 669.055 231.802 669.726 240.632C670.397 249.45 665.772 259.678 657.798 267.859C655.791 269.917 653.571 271.848 651.168 273.591C646.869 276.715 642.422 278.592 637.952 279.16C626.81 280.582 616.623 273.325 606.77 266.306C595.669 258.398 585.181 250.93 573.866 255.516C527.52 274.294 534.599 329.641 547.635 381.305C559.792 429.483 560.255 457.454 549.035 468.971L549.048 468.968Z" fill="white" fill-opacity="0.3"/>
<path d="M546.827 446.187C533.439 459.922 502.314 450.456 466.298 439.501C441.243 431.882 412.843 423.24 387.259 421.825C357.993 420.204 336.77 428.281 322.385 446.514C297.012 478.672 303.39 514.651 309.554 549.446C310.459 554.538 311.391 559.804 312.205 564.966C315.318 584.634 310.743 605.459 306.211 623.436C301.829 640.817 291.995 656.44 282.951 669.434C276.502 678.702 266.003 685.327 251.751 689.128C239.514 692.389 225.236 693.329 210.475 691.845C204.206 691.216 198.059 689.811 192.204 687.672L192.418 687.083C198.225 689.204 204.319 690.596 210.536 691.223C236.06 693.79 268.352 689.318 282.441 669.079C291.45 656.132 301.249 640.568 305.607 623.283C310.123 605.368 314.682 584.621 311.591 565.065C310.776 559.908 309.842 554.645 308.943 549.558C305.856 532.135 302.662 514.117 303.49 496.74C304.417 477.207 310.441 460.653 321.899 446.128C336.42 427.722 357.814 419.571 387.298 421.204C412.957 422.625 441.395 431.272 466.487 438.904C502.486 449.854 533.583 459.31 546.584 445.546C551.958 439.86 553.985 430.557 552.785 417.111C551.483 402.529 546.43 383.408 537.343 358.657C529.167 336.389 520.735 310.395 520.205 286.46C519.92 273.67 522.009 262.525 526.405 253.338C531.413 242.867 539.595 234.551 550.719 228.623C561.916 222.651 573.397 229.141 585.551 236.008C596.094 241.965 607.002 248.125 617.812 245.573C622.113 244.556 626.282 242.26 630.195 238.744C640.816 229.207 646.601 215.293 644.597 204.106C643.324 196.991 639.511 189.953 632.943 182.597C628.37 177.475 623.379 172.44 618.553 167.573C611.701 160.665 604.616 153.52 598.613 146.005L599.102 145.614C605.081 153.105 612.156 160.236 618.997 167.133C623.829 172.007 628.829 177.044 633.41 182.18C640.053 189.626 643.914 196.76 645.211 203.996C646.24 209.749 645.345 216.174 642.618 222.58C639.979 228.778 635.825 234.529 630.612 239.211C626.62 242.797 622.361 245.141 617.953 246.184C606.9 248.795 595.889 242.573 585.238 236.553C573.237 229.775 561.903 223.37 551.007 229.177C506.388 252.959 519.355 307.872 537.925 358.445C547.033 383.254 552.098 402.425 553.406 417.062C554.624 430.701 552.539 440.159 547.037 445.983C546.969 446.052 546.898 446.125 546.83 446.195L546.827 446.187Z" fill="white" fill-opacity="0.3"/>
<path d="M545.641 427.071C532.679 440.37 501.386 434.438 465.371 427.617C439.626 422.742 410.443 417.214 384.197 418.214C354.13 419.356 332.541 428.904 318.198 447.397C293.413 479.348 304.169 515.089 314.57 549.655C316.471 555.969 318.435 562.497 320.118 568.828C325.114 587.627 323.17 608.6 320.325 628.466C317.536 647.951 311.003 664.293 300.914 677.039C293.312 686.645 282.654 694.609 270.105 700.07C257.735 705.454 243.805 708.298 229.822 708.292C223.348 708.292 216.961 707.499 210.837 705.948L210.993 705.341C217.066 706.881 223.398 707.665 229.822 707.665C258.219 707.676 285.271 695.79 300.426 676.65C310.306 664.17 316.972 647.478 319.711 628.375C322.545 608.575 324.485 587.679 319.518 568.985C317.838 562.662 315.874 556.139 313.976 549.828C303.531 515.111 292.732 479.213 317.713 447.005C332.175 428.357 353.918 418.735 384.181 417.581C410.499 416.581 439.715 422.114 465.492 426.994C502.801 434.061 535.026 440.166 546.674 424.915C551.58 418.494 552.644 408.662 549.933 394.86C546.994 379.91 539.701 360.601 527.636 335.834C517.023 314.047 505.768 288.498 502.754 264.224C501.144 251.256 502.112 239.711 505.63 229.919C509.641 218.76 517.092 209.464 527.785 202.287C538.544 195.065 550.884 200.472 563.943 206.193C575.28 211.162 587.006 216.298 597.735 212.575C601.964 211.107 605.953 208.347 609.575 204.373C619.266 193.748 623.389 179.279 620.082 167.503C618.028 160.189 613.343 153.043 606.545 146.842C601.375 142.13 595.793 137.551 590.392 133.127C582.725 126.843 574.799 120.344 567.935 113.353L568.382 112.917C575.224 119.885 583.136 126.371 590.789 132.647C596.196 137.076 601.783 141.661 606.967 146.386C613.855 152.669 618.601 159.913 620.688 167.341C624.053 179.32 619.874 194.025 610.042 204.8C606.34 208.855 602.275 211.672 597.944 213.172C586.984 216.975 575.144 211.788 563.696 206.77C550.798 201.119 538.614 195.783 528.137 202.81C485.236 231.6 504.094 286.075 528.202 335.567C551.45 383.299 557.479 411.815 547.173 425.303C546.698 425.925 546.189 426.514 545.649 427.068L545.641 427.071Z" fill="white" fill-opacity="0.3"/>
<path d="M308.958 696.997C293.893 712.452 272.505 722.534 249.157 724.734C242.457 725.364 235.829 725.192 229.465 724.219L229.559 723.601C235.876 724.567 242.449 724.74 249.097 724.113C278.022 721.389 303.917 706.494 318.37 684.264C327.66 669.971 332.998 652.409 333.803 633.472C334.667 613.164 334.493 591.774 327.436 572.913C325.111 566.698 322.486 560.305 319.949 554.124C305.71 519.427 290.99 483.553 313.502 447.924C326.495 427.358 347.853 415.327 378.796 411.149C405.702 407.515 436.236 410.302 463.173 412.757C502.165 416.317 535.841 419.389 546.286 402.579C550.687 395.503 550.808 385.302 546.656 371.405C542.16 356.356 532.761 337.262 517.927 313.035C509.406 299.123 497.142 278.241 489.026 257.59C480.068 234.804 477.636 216.083 481.791 201.944C485.166 190.464 492.944 181.717 504.915 175.943C516.345 170.428 529.198 174.105 541.625 177.665C553.83 181.157 566.45 184.77 577.655 179.62C581.807 177.71 585.607 174.488 588.956 170.04C597.765 158.333 600.297 143.348 595.562 130.934C592.67 123.348 587.335 116.496 580.138 111.117C574.361 106.8 568.171 102.67 562.185 98.6734C553.72 93.0236 544.967 87.1815 537.248 80.7267L537.651 80.2465C545.342 86.6795 554.083 92.5108 562.534 98.1524C568.526 102.149 574.724 106.287 580.513 110.615C587.807 116.062 593.215 123.013 596.15 130.711C600.96 143.323 598.395 158.538 589.458 170.415C586.05 174.947 582.167 178.236 577.919 180.188C566.506 185.435 553.774 181.79 541.458 178.267C529.143 174.743 516.411 171.098 505.193 176.509C493.387 182.203 485.72 190.819 482.396 202.124C478.28 216.127 480.708 234.713 489.611 257.364C497.713 277.968 509.957 298.82 518.464 312.714C547.049 359.392 556.06 388.054 546.824 402.918C546.05 404.165 545.15 405.306 544.136 406.347C531.215 419.603 499.467 416.707 463.12 413.387C436.216 410.932 405.721 408.15 378.884 411.775C348.14 415.928 326.924 427.864 314.036 448.265C291.698 483.621 306.358 519.344 320.534 553.892C323.071 560.079 325.697 566.478 328.027 572.704C335.127 591.672 335.302 613.14 334.436 633.511C333.624 652.561 328.252 670.231 318.902 684.619C316.02 689.052 312.684 693.196 308.966 697.011L308.958 696.997Z" fill="white" fill-opacity="0.3"/>
<path d="M321.446 713.168C317.621 717.092 313.444 720.705 308.97 723.942C297.099 732.534 283.104 738.494 268.493 741.175C261.549 742.452 254.686 742.891 248.089 742.487L248.125 741.862C254.67 742.264 261.483 741.826 268.374 740.558C297.476 735.214 322.876 717.016 336.317 691.874C344.856 675.901 348.863 657.467 347.903 638.561C346.899 618.788 344.625 595.988 335.357 576.827C332.412 570.739 329.162 564.5 326.017 558.462C307.945 523.776 289.256 487.911 309.293 448.823C320.82 426.337 341.791 411.906 373.41 404.701C400.907 398.435 432.754 398.471 460.853 398.503C501.529 398.55 536.657 398.593 545.904 380.222C549.798 372.483 548.973 361.922 543.381 347.925C537.327 332.774 525.825 313.895 508.22 290.212C498.112 276.613 483.475 256.151 473.153 235.542C461.766 212.804 457.503 193.667 460.484 178.657C462.905 166.471 470.138 156.695 481.981 149.608C493.287 142.843 506.919 145.452 520.103 147.973C533.063 150.455 546.466 153.02 557.575 146.631C561.641 144.294 565.258 140.605 568.333 135.672C576.189 123.057 577.227 107.211 571.041 94.326C567.316 86.5662 561.33 80.0064 553.725 75.3536C547.287 71.3957 540.434 67.6834 533.81 64.0952C524.601 59.1067 515.076 53.9511 506.558 48.0645L506.914 47.549C515.407 53.4166 524.912 58.5642 534.106 63.5445C540.739 67.1354 547.6 70.8504 554.05 74.8192C561.758 79.5341 567.827 86.1868 571.601 94.0537C577.877 107.13 576.829 123.207 568.859 136.005C565.731 141.027 562.039 144.787 557.883 147.176C546.571 153.679 533.055 151.091 519.981 148.591C506.911 146.087 493.397 143.502 482.297 150.146C470.613 157.136 463.481 166.77 461.096 178.778C458.14 193.65 462.385 212.655 473.71 235.261C484.01 255.826 498.624 276.256 508.718 289.836C542.639 335.459 554.631 364.268 546.46 380.502C537.041 399.213 501.733 399.174 460.85 399.127C432.784 399.095 400.976 399.058 373.548 405.309C342.124 412.471 321.288 426.798 309.852 449.106C289.963 487.907 308.575 523.627 326.574 558.17C329.719 564.209 332.972 570.456 335.922 576.549C345.236 595.809 347.522 618.686 348.53 638.522C349.493 657.542 345.464 676.089 336.87 692.163C332.802 699.771 327.579 706.864 321.443 713.16L321.446 713.168Z" fill="white" fill-opacity="0.3"/>
<path d="M334.221 730.403C321.531 743.422 305.562 752.862 287.825 757.619C280.625 759.551 273.521 760.606 266.715 760.757L266.702 760.133C273.458 759.983 280.512 758.934 287.666 757.017C337.117 743.752 369.081 695.019 362.014 643.655C358.872 620.816 352.4 599.067 343.292 580.749C341.77 578.573 340.226 576.38 338.667 574.169C312.815 537.484 283.514 495.905 305.109 449.724C313.965 425.028 332.507 408.78 361.779 400.083C387.342 392.488 416.744 391.62 445.174 390.78C485.617 389.584 520.543 388.554 531.427 367.955C536.1 359.109 536.033 347.221 531.23 331.614C526 314.627 515.3 293.629 498.519 267.405C475.831 248.438 458.745 225 450.401 201.405C445.694 188.095 443.855 174.97 444.94 162.393C446.128 148.59 450.854 135.461 458.985 123.376L459.004 123.345L459.031 123.317C469.544 113.701 484.619 115.574 499.2 117.383C512.738 119.066 526.735 120.803 537.52 113.666C541.597 110.714 545.035 106.56 547.73 101.328C553.284 90.5489 554.256 78.205 550.47 66.5739C546.624 54.7585 538.409 45.181 527.327 39.609C520.288 36.0703 512.848 32.8212 505.649 29.6822C495.629 25.309 485.264 20.7911 475.88 15.4238L476.19 14.8813C485.547 20.2324 495.895 24.745 505.899 29.1128C513.103 32.2572 520.552 35.5035 527.607 39.0531C538.837 44.7033 547.166 54.4091 551.064 66.384C554.899 78.1774 553.91 90.6901 548.283 101.616C545.542 106.935 542.039 111.166 537.874 114.181C526.887 121.453 512.774 119.7 499.122 118.006C484.033 116.131 469.779 114.361 459.481 123.756C426.717 172.511 455.696 230.803 498.96 266.958L498.994 266.99L499.022 267.029C515.849 293.318 526.583 314.382 531.83 331.43C536.688 347.204 536.739 359.247 531.983 368.246C526.924 377.828 516.573 383.865 499.415 387.245C484.14 390.255 465.223 390.813 445.193 391.404C416.802 392.243 387.441 393.109 361.955 400.68C332.89 409.316 314.484 425.435 305.686 449.96C284.231 495.835 313.422 537.258 339.179 573.806C340.743 576.023 342.293 578.226 343.821 580.408L343.846 580.449C352.99 598.83 359.486 620.656 362.638 643.569C366.069 668.517 360.408 693.83 346.696 714.835C343.023 720.461 338.842 725.668 334.226 730.403L334.221 730.403Z" fill="white" fill-opacity="0.3"/>
</g>
<defs>
<clipPath id="clip0_261_314">
<rect width="703" height="555" fill="white" transform="translate(0 503.42) rotate(-45.7336)"/>
</clipPath>
</defs>
</svg>
