<svg width="527" height="312" viewBox="0 0 527 312" fill="none" xmlns="http://www.w3.org/2000/svg">
<g clip-path="url(#clip0_258_132)">
<path d="M-67.2275 120.191C-21.1466 110.469 91.2523 107.858 172.197 175.187C273.378 259.35 303.968 269.348 361.619 276.849C419.269 284.349 483.389 305.181 525.157 352.677" stroke="white" stroke-opacity="0.2"/>
<path d="M-113.689 120.191C-67.6086 110.469 44.7895 107.858 125.735 175.187C226.916 259.35 257.506 269.348 315.157 276.849C372.807 284.349 436.927 305.181 478.695 352.677" stroke="white" stroke-opacity="0.2"/>
<path d="M-165.129 120.191C-119.048 110.469 -6.64993 107.858 74.2957 175.187C175.477 259.35 206.067 269.348 263.717 276.849C321.368 284.349 385.488 305.181 427.255 352.677" stroke="white" stroke-opacity="0.2"/>
<path d="M-239.884 108.158C-190.07 99.8013 -69.1452 100.513 16.0449 170.209C122.532 257.33 155.15 268.229 216.931 277.429C278.713 286.63 347.086 309.349 390.695 358.063" stroke="white" stroke-opacity="0.2"/>
<path opacity="0.8" d="M298.086 180.905C342.407 170.314 369.763 125.749 359.187 81.3649C348.611 36.9811 304.108 9.58661 259.787 20.1775C215.466 30.7684 188.111 75.3341 198.686 119.718C209.262 164.102 253.765 191.496 298.086 180.905Z" stroke="white" stroke-opacity="0.2"/>
<path d="M288.055 176.139C327.461 176.139 359.406 144.149 359.406 104.687C359.406 65.2244 327.461 33.2339 288.055 33.2339C248.648 33.2339 216.703 65.2244 216.703 104.687C216.703 144.149 248.648 176.139 288.055 176.139Z" fill="url(#paint0_radial_258_132)" fill-opacity="0.2"/>
</g>
<defs>
<radialGradient id="paint0_radial_258_132" cx="0" cy="0" r="1" gradientUnits="userSpaceOnUse" gradientTransform="translate(288.055 104.687) rotate(90) scale(71.4527 71.3516)">
<stop stop-color="white" stop-opacity="0"/>
<stop offset="1" stop-color="#707070"/>
</radialGradient>
<clipPath id="clip0_258_132">
<rect width="604" height="334" fill="white" transform="translate(-77)"/>
</clipPath>
</defs>
</svg>
